<mxfile host="app.diagrams.net" modified="2021-12-22T19:25:55.399Z" agent="5.0 (Windows)" etag="LCYxBfLt4nDpkLnOxq1K" version="16.0.3" type="github">
  <diagram id="z83SQTNPBHnyX_KmbMuZ" name="Page-1">
    <mxGraphModel dx="2476" dy="1018" grid="0" gridSize="10" guides="1" tooltips="1" connect="1" arrows="1" fold="1" page="0" pageScale="1" pageWidth="1100" pageHeight="850" math="0" shadow="0">
      <root>
        <mxCell id="0" />
        <mxCell id="1" parent="0" />
        <mxCell id="BpTFQ8hlW1oBn9F-b8mr-3" style="edgeStyle=none;curved=1;rounded=0;orthogonalLoop=1;jettySize=auto;html=1;endArrow=open;startSize=14;endSize=14;sourcePerimeterSpacing=8;targetPerimeterSpacing=8;entryX=0;entryY=0.5;entryDx=0;entryDy=0;fontSize=23;" edge="1" parent="1" source="BpTFQ8hlW1oBn9F-b8mr-1" target="BpTFQ8hlW1oBn9F-b8mr-4">
          <mxGeometry relative="1" as="geometry">
            <mxPoint x="-77" y="296.5" as="targetPoint" />
          </mxGeometry>
        </mxCell>
        <mxCell id="BpTFQ8hlW1oBn9F-b8mr-1" value="" style="ellipse;whiteSpace=wrap;html=1;aspect=fixed;hachureGap=4;fillColor=#000000;fontSize=23;" vertex="1" parent="1">
          <mxGeometry x="-238" y="216.5" width="53" height="53" as="geometry" />
        </mxCell>
        <mxCell id="BpTFQ8hlW1oBn9F-b8mr-6" style="edgeStyle=none;curved=1;rounded=0;orthogonalLoop=1;jettySize=auto;html=1;fontSize=23;endArrow=open;startSize=14;endSize=14;sourcePerimeterSpacing=8;targetPerimeterSpacing=8;exitX=1;exitY=0.5;exitDx=0;exitDy=0;" edge="1" parent="1" source="BpTFQ8hlW1oBn9F-b8mr-4" target="BpTFQ8hlW1oBn9F-b8mr-5">
          <mxGeometry relative="1" as="geometry">
            <mxPoint x="148" y="325" as="sourcePoint" />
          </mxGeometry>
        </mxCell>
        <mxCell id="BpTFQ8hlW1oBn9F-b8mr-4" value="&lt;font style=&quot;font-size: 23px;&quot;&gt;Datang &lt;/font&gt;" style="rounded=1;whiteSpace=wrap;html=1;hachureGap=4;fillColor=#FFFFFF;fontSize=23;" vertex="1" parent="1">
          <mxGeometry x="-59" y="213" width="120" height="60" as="geometry" />
        </mxCell>
        <mxCell id="BpTFQ8hlW1oBn9F-b8mr-8" style="edgeStyle=none;curved=1;rounded=0;orthogonalLoop=1;jettySize=auto;html=1;fontSize=23;endArrow=open;startSize=14;endSize=14;sourcePerimeterSpacing=8;targetPerimeterSpacing=8;entryX=0;entryY=0.5;entryDx=0;entryDy=0;exitX=1;exitY=0.5;exitDx=0;exitDy=0;" edge="1" parent="1" source="BpTFQ8hlW1oBn9F-b8mr-5" target="BpTFQ8hlW1oBn9F-b8mr-7">
          <mxGeometry relative="1" as="geometry">
            <mxPoint x="377" y="266" as="sourcePoint" />
            <mxPoint x="500" y="283" as="targetPoint" />
          </mxGeometry>
        </mxCell>
        <mxCell id="BpTFQ8hlW1oBn9F-b8mr-5" value="Masuk" style="rounded=1;whiteSpace=wrap;html=1;hachureGap=4;fillColor=#FFFFFF;fontSize=23;" vertex="1" parent="1">
          <mxGeometry x="230" y="213" width="120" height="60" as="geometry" />
        </mxCell>
        <mxCell id="BpTFQ8hlW1oBn9F-b8mr-10" style="edgeStyle=none;curved=1;rounded=0;orthogonalLoop=1;jettySize=auto;html=1;fontSize=23;endArrow=open;startSize=14;endSize=14;sourcePerimeterSpacing=8;targetPerimeterSpacing=8;exitX=1;exitY=0.5;exitDx=0;exitDy=0;" edge="1" parent="1" source="BpTFQ8hlW1oBn9F-b8mr-7" target="BpTFQ8hlW1oBn9F-b8mr-9">
          <mxGeometry relative="1" as="geometry">
            <mxPoint x="706" y="247.5" as="sourcePoint" />
          </mxGeometry>
        </mxCell>
        <mxCell id="BpTFQ8hlW1oBn9F-b8mr-16" style="edgeStyle=none;curved=1;rounded=0;orthogonalLoop=1;jettySize=auto;html=1;fontSize=23;endArrow=open;startSize=14;endSize=14;targetPerimeterSpacing=8;startArrow=none;" edge="1" parent="1" source="BpTFQ8hlW1oBn9F-b8mr-17" target="BpTFQ8hlW1oBn9F-b8mr-15">
          <mxGeometry relative="1" as="geometry" />
        </mxCell>
        <mxCell id="BpTFQ8hlW1oBn9F-b8mr-7" value="Memesan" style="rounded=1;whiteSpace=wrap;html=1;hachureGap=4;fillColor=#FFFFFF;fontSize=23;" vertex="1" parent="1">
          <mxGeometry x="540" y="213" width="120" height="60" as="geometry" />
        </mxCell>
        <mxCell id="BpTFQ8hlW1oBn9F-b8mr-29" style="edgeStyle=none;curved=1;rounded=0;orthogonalLoop=1;jettySize=auto;html=1;entryX=0;entryY=0.5;entryDx=0;entryDy=0;fontSize=23;endArrow=open;startSize=14;endSize=14;sourcePerimeterSpacing=8;targetPerimeterSpacing=8;" edge="1" parent="1" source="BpTFQ8hlW1oBn9F-b8mr-9" target="BpTFQ8hlW1oBn9F-b8mr-27">
          <mxGeometry relative="1" as="geometry" />
        </mxCell>
        <mxCell id="BpTFQ8hlW1oBn9F-b8mr-9" value="Bayar" style="rounded=1;whiteSpace=wrap;html=1;hachureGap=4;fillColor=#FFFFFF;fontSize=23;" vertex="1" parent="1">
          <mxGeometry x="869" y="213" width="120" height="60" as="geometry" />
        </mxCell>
        <mxCell id="BpTFQ8hlW1oBn9F-b8mr-11" value="&lt;div style=&quot;font-size: 23px;&quot;&gt;Datang &lt;br style=&quot;font-size: 23px;&quot;&gt;&lt;/div&gt;&lt;div style=&quot;font-size: 23px;&quot;&gt;ke restoran&lt;/div&gt;" style="text;html=1;align=center;verticalAlign=middle;resizable=0;points=[];autosize=1;strokeColor=none;fillColor=none;hachureGap=4;fontSize=23;" vertex="1" parent="1">
          <mxGeometry x="-188" y="158" width="125" height="60" as="geometry" />
        </mxCell>
        <mxCell id="BpTFQ8hlW1oBn9F-b8mr-12" value="&lt;div style=&quot;font-size: 23px&quot;&gt;Masuk ke restoran &lt;br style=&quot;font-size: 23px&quot;&gt;&lt;/div&gt;&lt;div style=&quot;font-size: 23px&quot;&gt;yang dikunjungi&lt;/div&gt;" style="text;html=1;align=center;verticalAlign=middle;resizable=0;points=[];autosize=1;strokeColor=none;fillColor=none;hachureGap=4;fontSize=23;" vertex="1" parent="1">
          <mxGeometry x="57" y="145" width="199" height="60" as="geometry" />
        </mxCell>
        <mxCell id="BpTFQ8hlW1oBn9F-b8mr-13" value="&lt;div style=&quot;font-size: 23px;&quot;&gt;Melakukan &lt;br style=&quot;font-size: 23px;&quot;&gt;&lt;/div&gt;&lt;div style=&quot;font-size: 23px;&quot;&gt;pemesanan menu&lt;/div&gt;&lt;div style=&quot;font-size: 23px;&quot;&gt;makanan dan minuman&lt;br style=&quot;font-size: 23px;&quot;&gt; &lt;/div&gt;" style="text;html=1;align=center;verticalAlign=middle;resizable=0;points=[];autosize=1;strokeColor=none;fillColor=none;hachureGap=4;fontSize=23;" vertex="1" parent="1">
          <mxGeometry x="334" y="125" width="250" height="88" as="geometry" />
        </mxCell>
        <mxCell id="BpTFQ8hlW1oBn9F-b8mr-15" value="Memesan menu yang lain" style="rounded=1;whiteSpace=wrap;html=1;hachureGap=4;fillColor=#FFFFFF;fontSize=23;" vertex="1" parent="1">
          <mxGeometry x="524" y="443" width="152" height="71" as="geometry" />
        </mxCell>
        <mxCell id="BpTFQ8hlW1oBn9F-b8mr-17" value="[Konfirmasi : Menu tidak ada]" style="text;html=1;align=center;verticalAlign=middle;resizable=0;points=[];autosize=1;strokeColor=none;fillColor=none;hachureGap=4;fontSize=23;" vertex="1" parent="1">
          <mxGeometry x="446" y="339" width="308" height="32" as="geometry" />
        </mxCell>
        <mxCell id="BpTFQ8hlW1oBn9F-b8mr-18" value="" style="edgeStyle=none;curved=1;rounded=0;orthogonalLoop=1;jettySize=auto;html=1;fontSize=23;endArrow=none;startSize=14;endSize=14;sourcePerimeterSpacing=8;" edge="1" parent="1" source="BpTFQ8hlW1oBn9F-b8mr-7" target="BpTFQ8hlW1oBn9F-b8mr-17">
          <mxGeometry relative="1" as="geometry">
            <mxPoint x="600" y="285.5" as="sourcePoint" />
            <mxPoint x="600" y="437" as="targetPoint" />
          </mxGeometry>
        </mxCell>
        <mxCell id="BpTFQ8hlW1oBn9F-b8mr-21" value="" style="line;strokeWidth=1;html=1;perimeter=backbonePerimeter;points=[];outlineConnect=0;hachureGap=4;fontSize=23;fillColor=#FFFFFF;" vertex="1" parent="1">
          <mxGeometry x="679" y="473.5" width="232" height="10" as="geometry" />
        </mxCell>
        <mxCell id="BpTFQ8hlW1oBn9F-b8mr-24" value="[Konfirmasi : Menu ada]" style="text;html=1;align=center;verticalAlign=middle;resizable=0;points=[];autosize=1;strokeColor=none;fillColor=none;hachureGap=4;fontSize=23;" vertex="1" parent="1">
          <mxGeometry x="634" y="176.5" width="253" height="32" as="geometry" />
        </mxCell>
        <mxCell id="BpTFQ8hlW1oBn9F-b8mr-26" style="edgeStyle=none;curved=1;rounded=0;orthogonalLoop=1;jettySize=auto;html=1;fontSize=23;endArrow=open;startSize=14;endSize=14;sourcePerimeterSpacing=8;targetPerimeterSpacing=8;" edge="1" parent="1" source="BpTFQ8hlW1oBn9F-b8mr-25">
          <mxGeometry relative="1" as="geometry">
            <mxPoint x="913" y="270" as="targetPoint" />
          </mxGeometry>
        </mxCell>
        <mxCell id="BpTFQ8hlW1oBn9F-b8mr-25" value="[Konfirmasi : Menu ada]" style="text;html=1;align=center;verticalAlign=middle;resizable=0;points=[];autosize=1;strokeColor=none;fillColor=none;hachureGap=4;fontSize=23;" vertex="1" parent="1">
          <mxGeometry x="786" y="444" width="253" height="32" as="geometry" />
        </mxCell>
        <mxCell id="BpTFQ8hlW1oBn9F-b8mr-32" style="edgeStyle=none;curved=1;rounded=0;orthogonalLoop=1;jettySize=auto;html=1;fontSize=23;endArrow=open;startSize=14;endSize=14;sourcePerimeterSpacing=8;targetPerimeterSpacing=8;" edge="1" parent="1" source="BpTFQ8hlW1oBn9F-b8mr-27" target="BpTFQ8hlW1oBn9F-b8mr-31">
          <mxGeometry relative="1" as="geometry" />
        </mxCell>
        <mxCell id="BpTFQ8hlW1oBn9F-b8mr-27" value="Diterima" style="rounded=1;whiteSpace=wrap;html=1;hachureGap=4;fillColor=#FFFFFF;fontSize=23;strokeWidth=1;" vertex="1" parent="1">
          <mxGeometry x="1162" y="213" width="120" height="60" as="geometry" />
        </mxCell>
        <mxCell id="BpTFQ8hlW1oBn9F-b8mr-30" value="&lt;div&gt;Makanan dan minuman&lt;/div&gt;&lt;div&gt;telah diterima&lt;br&gt;&lt;/div&gt;" style="text;html=1;align=center;verticalAlign=middle;resizable=0;points=[];autosize=1;strokeColor=none;fillColor=none;hachureGap=4;fontSize=23;" vertex="1" parent="1">
          <mxGeometry x="948" y="158" width="250" height="60" as="geometry" />
        </mxCell>
        <mxCell id="BpTFQ8hlW1oBn9F-b8mr-35" style="edgeStyle=none;curved=1;rounded=0;orthogonalLoop=1;jettySize=auto;html=1;fontSize=23;endArrow=open;startSize=14;endSize=14;sourcePerimeterSpacing=8;targetPerimeterSpacing=8;" edge="1" parent="1" source="BpTFQ8hlW1oBn9F-b8mr-31">
          <mxGeometry relative="1" as="geometry">
            <mxPoint x="1461" y="327" as="targetPoint" />
          </mxGeometry>
        </mxCell>
        <mxCell id="BpTFQ8hlW1oBn9F-b8mr-31" value="Keluar" style="rounded=1;whiteSpace=wrap;html=1;hachureGap=4;fillColor=#FFFFFF;fontSize=23;strokeWidth=1;" vertex="1" parent="1">
          <mxGeometry x="1401" y="213" width="120" height="60" as="geometry" />
        </mxCell>
        <mxCell id="BpTFQ8hlW1oBn9F-b8mr-33" value="&lt;div&gt;Keluar dari&lt;/div&gt;&lt;div&gt;restoran&lt;br&gt;&lt;/div&gt;" style="text;html=1;align=center;verticalAlign=middle;resizable=0;points=[];autosize=1;strokeColor=none;fillColor=none;hachureGap=4;fontSize=23;" vertex="1" parent="1">
          <mxGeometry x="1282" y="156.5" width="121" height="60" as="geometry" />
        </mxCell>
        <mxCell id="BpTFQ8hlW1oBn9F-b8mr-36" value="" style="ellipse;whiteSpace=wrap;html=1;aspect=fixed;hachureGap=4;fontSize=23;strokeWidth=1;fillColor=#FFFFFF;" vertex="1" parent="1">
          <mxGeometry x="1421" y="329" width="80" height="80" as="geometry" />
        </mxCell>
        <mxCell id="BpTFQ8hlW1oBn9F-b8mr-37" value="" style="ellipse;whiteSpace=wrap;html=1;aspect=fixed;hachureGap=4;fontSize=23;strokeWidth=1;fillColor=#000000;" vertex="1" parent="1">
          <mxGeometry x="1437" y="345" width="48" height="48" as="geometry" />
        </mxCell>
      </root>
    </mxGraphModel>
  </diagram>
</mxfile>
